<svg width="1200" height="1200" viewBox="0 0 1200 1200" fill="none" xmlns="http://www.w3.org/2000/svg">
  <rect width="1200" height="1200" fill="transparent"/>
  <g opacity="0.4" stroke="url(#lineGrad)" stroke-width="1">
    <path d="M0 200H1200"/>
    <path d="M0 400H1200"/>
    <path d="M0 600H1200"/>
    <path d="M0 800H1200"/>
    <path d="M0 1000H1200"/>
    <path d="M200 0V1200"/>
    <path d="M400 0V1200"/>
    <path d="M600 0V1200"/>
    <path d="M800 0V1200"/>
    <path d="M1000 0V1200"/>
  </g>
  <g opacity="0.55" stroke="url(#ringGrad)" stroke-width="2">
    <circle cx="920" cy="280" r="220"/>
    <circle cx="920" cy="280" r="300"/>
    <circle cx="920" cy="280" r="380"/>
  </g>
  <g opacity="0.7">
    <circle cx="920" cy="280" r="9" fill="#8ABF3A"/>
    <circle cx="660" cy="620" r="8" fill="#2C8FD6"/>
    <circle cx="1060" cy="780" r="10" fill="#8ABF3A"/>
  </g>
  <defs>
    <linearGradient id="lineGrad" x1="0" y1="0" x2="1200" y2="1200" gradientUnits="userSpaceOnUse">
      <stop stop-color="#8ABF3A" stop-opacity="0.45"/>
      <stop offset="1" stop-color="#1FA6E8" stop-opacity="0.2"/>
    </linearGradient>
    <linearGradient id="ringGrad" x1="540" y1="0" x2="1200" y2="700" gradientUnits="userSpaceOnUse">
      <stop stop-color="#8ABF3A" stop-opacity="0.4"/>
      <stop offset="1" stop-color="#1FA6E8" stop-opacity="0.12"/>
    </linearGradient>
  </defs>
</svg>
